<?xml version="1.0" encoding="UTF-8"?>
<svg xmlns="http://www.w3.org/2000/svg" xmlns:xlink="http://www.w3.org/1999/xlink" fill-opacity="1" color-rendering="auto" color-interpolation="auto" stroke="black" text-rendering="auto" stroke-linecap="square" width="377" stroke-miterlimit="10" stroke-opacity="1" shape-rendering="auto" fill="black" stroke-dasharray="none" font-weight="normal" stroke-width="1" height="282" font-family="'Dialog'" font-style="normal" stroke-linejoin="miter" font-size="12" stroke-dashoffset="0" image-rendering="auto">
  <!--Generated by ySVG 2.5-->
  <defs id="genericDefs"/>
  <g>
    <defs id="defs1">
      <clipPath clipPathUnits="userSpaceOnUse" id="clipPath1">
        <path d="M0 0 L377 0 L377 282 L0 282 L0 0 Z"/>
      </clipPath>
      <clipPath clipPathUnits="userSpaceOnUse" id="clipPath2">
        <path d="M332 218 L709 218 L709 500 L332 500 L332 218 Z"/>
      </clipPath>
      <clipPath clipPathUnits="userSpaceOnUse" id="clipPath3">
        <path d="M87.5337 -27.1698 L87.5337 349.8302 L-194.4663 349.8302 L-194.4663 -27.1698 L87.5337 -27.1698 Z"/>
      </clipPath>
      <clipPath clipPathUnits="userSpaceOnUse" id="clipPath4">
        <path d="M168.1807 -27.1698 L168.1807 349.8302 L-113.8193 349.8302 L-113.8193 -27.1698 L168.1807 -27.1698 Z"/>
      </clipPath>
      <clipPath clipPathUnits="userSpaceOnUse" id="clipPath5">
        <path d="M258.0726 -27.1698 L258.0726 349.8302 L-23.9274 349.8302 L-23.9274 -27.1698 L258.0726 -27.1698 Z"/>
      </clipPath>
    </defs>
    <g fill="white" text-rendering="geometricPrecision" shape-rendering="geometricPrecision" transform="translate(-332,-218)" stroke="white">
      <rect x="332" width="377" height="282" y="218" clip-path="url(#clipPath2)" stroke="none"/>
    </g>
    <g fill="green" text-rendering="geometricPrecision" shape-rendering="geometricPrecision" transform="matrix(1,0,0,1,-332,-218)" stroke="green">
      <rect x="380.32" y="239.552" clip-path="url(#clipPath2)" width="312.912" rx="4" ry="4" height="59.936" stroke="none"/>
      <rect x="380.32" y="312.736" clip-path="url(#clipPath2)" fill="rgb(43,88,217)" width="248.456" rx="4" ry="4" height="74.272" stroke="none"/>
      <rect x="390.872" y="248.208" clip-path="url(#clipPath2)" fill="rgb(0,77,0)" width="86.096" rx="4" ry="4" height="20" stroke="none"/>
    </g>
    <g stroke-linecap="butt" transform="matrix(1,0,0,1,-332,-218)" fill="white" text-rendering="geometricPrecision" font-family="sans-serif" shape-rendering="geometricPrecision" stroke="white" stroke-miterlimit="1.45">
      <text x="396.872" xml:space="preserve" y="262.6289" clip-path="url(#clipPath2)" stroke="none">some state</text>
    </g>
    <g fill="rgb(0,77,0)" text-rendering="geometricPrecision" shape-rendering="geometricPrecision" transform="matrix(1,0,0,1,-332,-218)" stroke="rgb(0,77,0)">
      <rect x="390.872" y="272.392" clip-path="url(#clipPath2)" width="86.096" rx="4" ry="4" height="20" stroke="none"/>
    </g>
    <g stroke-linecap="butt" transform="matrix(1,0,0,1,-332,-218)" fill="white" text-rendering="geometricPrecision" font-family="sans-serif" shape-rendering="geometricPrecision" stroke="white" stroke-miterlimit="1.45">
      <text x="396.872" xml:space="preserve" y="286.8129" clip-path="url(#clipPath2)" stroke="none">another state</text>
    </g>
    <g fill="rgb(222,178,0)" text-rendering="geometricPrecision" shape-rendering="geometricPrecision" transform="matrix(1,0,0,1,-332,-218)" stroke="rgb(222,178,0)">
      <rect x="506.968" width="40.752" height="20" y="248.208" clip-path="url(#clipPath2)" stroke="none"/>
    </g>
    <g stroke-linecap="butt" transform="matrix(1,0,0,1,-332,-218)" fill="white" text-rendering="geometricPrecision" font-family="sans-serif" shape-rendering="geometricPrecision" stroke="white" stroke-miterlimit="1.45">
      <text x="509.3469" xml:space="preserve" y="262.6289" clip-path="url(#clipPath2)" stroke="none">state1</text>
    </g>
    <g fill="rgb(255,153,0)" text-rendering="geometricPrecision" shape-rendering="geometricPrecision" transform="matrix(1,0,0,1,-332,-218)" stroke="rgb(255,153,0)">
      <path d="M633.3196 279.9344 L638.214 269.9344 L677.3692 269.9344 L682.2636 279.9344 L677.3692 289.9344 L638.214 289.9344 Z" clip-path="url(#clipPath2)" fill-rule="evenodd" stroke="none"/>
    </g>
    <g stroke-linecap="butt" transform="matrix(1,0,0,1,-332,-218)" fill="white" text-rendering="geometricPrecision" font-family="sans-serif" shape-rendering="geometricPrecision" stroke="white" stroke-miterlimit="1.45">
      <text x="637.8961" xml:space="preserve" y="284.3553" clip-path="url(#clipPath2)" stroke="none">state 2</text>
    </g>
    <g fill="rgb(31,62,153)" text-rendering="geometricPrecision" shape-rendering="geometricPrecision" transform="matrix(1,0,0,1,-332,-218)" stroke="rgb(31,62,153)">
      <rect x="389.608" y="352.392" clip-path="url(#clipPath2)" width="87.36" rx="4" ry="4" height="20" stroke="none"/>
    </g>
    <g stroke-linecap="butt" transform="matrix(1,0,0,1,-332,-218)" fill="white" text-rendering="geometricPrecision" font-family="sans-serif" shape-rendering="geometricPrecision" stroke="white" stroke-miterlimit="1.45">
      <text x="395.608" xml:space="preserve" y="366.8129" clip-path="url(#clipPath2)" stroke="none">some action</text>
    </g>
    <g fill="rgb(222,178,0)" text-rendering="geometricPrecision" shape-rendering="geometricPrecision" transform="matrix(1,0,0,1,-332,-218)" stroke="rgb(222,178,0)">
      <rect x="506.968" width="40.752" height="20" y="322.392" clip-path="url(#clipPath2)" stroke="none"/>
    </g>
    <g stroke-linecap="butt" transform="matrix(1,0,0,1,-332,-218)" fill="white" text-rendering="geometricPrecision" font-family="sans-serif" shape-rendering="geometricPrecision" stroke="white" stroke-miterlimit="1.45">
      <text x="509.3469" xml:space="preserve" y="336.8129" clip-path="url(#clipPath2)" stroke="none">state1</text>
    </g>
    <g fill="rgb(199,119,159)" text-rendering="geometricPrecision" shape-rendering="geometricPrecision" transform="matrix(1,0,0,1,-332,-218)" stroke="rgb(199,119,159)">
      <path d="M571.4144 352.392 L615.464 352.392 L610.5696 372.392 L566.52 372.392 Z" clip-path="url(#clipPath2)" fill-rule="evenodd" stroke="none"/>
    </g>
    <g stroke-linecap="butt" transform="matrix(1,0,0,1,-332,-218)" fill="white" text-rendering="geometricPrecision" font-family="sans-serif" shape-rendering="geometricPrecision" stroke="white" stroke-miterlimit="1.45">
      <text x="574.4334" xml:space="preserve" y="366.8129" clip-path="url(#clipPath2)" stroke="none">result</text>
    </g>
    <g fill="rgb(214,86,0)" text-rendering="geometricPrecision" shape-rendering="geometricPrecision" transform="matrix(1,0,0,1,-332,-218)" stroke="rgb(214,86,0)">
      <rect x="380.32" y="400.256" clip-path="url(#clipPath2)" width="312.912" rx="4" ry="4" height="84.512" stroke="none"/>
      <rect x="506.968" y="412.296" clip-path="url(#clipPath2)" fill="rgb(222,178,0)" width="40.752" height="20" stroke="none"/>
    </g>
    <g stroke-linecap="butt" transform="matrix(1,0,0,1,-332,-218)" fill="white" text-rendering="geometricPrecision" font-family="sans-serif" shape-rendering="geometricPrecision" stroke="white" stroke-miterlimit="1.45">
      <text x="509.3469" xml:space="preserve" y="426.7169" clip-path="url(#clipPath2)" stroke="none">state1</text>
    </g>
    <g fill="rgb(199,119,159)" text-rendering="geometricPrecision" shape-rendering="geometricPrecision" transform="matrix(1,0,0,1,-332,-218)" stroke="rgb(199,119,159)">
      <path d="M569.7984 412.296 L613.848 412.296 L608.9536 432.296 L564.904 432.296 Z" clip-path="url(#clipPath2)" fill-rule="evenodd" stroke="none"/>
    </g>
    <g stroke-linecap="butt" transform="matrix(1,0,0,1,-332,-218)" fill="white" text-rendering="geometricPrecision" font-family="sans-serif" shape-rendering="geometricPrecision" stroke="white" stroke-miterlimit="1.45">
      <text x="572.8174" xml:space="preserve" y="426.7169" clip-path="url(#clipPath2)" stroke="none">result</text>
    </g>
    <g fill="rgb(255,153,0)" text-rendering="geometricPrecision" shape-rendering="geometricPrecision" transform="matrix(1,0,0,1,-332,-218)" stroke="rgb(255,153,0)">
      <path d="M631.032 422.296 L635.9264 412.296 L675.0816 412.296 L679.976 422.296 L675.0816 432.296 L635.9264 432.296 Z" clip-path="url(#clipPath2)" fill-rule="evenodd" stroke="none"/>
    </g>
    <g stroke-linecap="butt" transform="matrix(1,0,0,1,-332,-218)" fill="white" text-rendering="geometricPrecision" font-family="sans-serif" shape-rendering="geometricPrecision" stroke="white" stroke-miterlimit="1.45">
      <text x="635.6085" xml:space="preserve" y="426.7169" clip-path="url(#clipPath2)" stroke="none">state 2</text>
    </g>
    <g fill="rgb(153,51,0)" text-rendering="geometricPrecision" shape-rendering="geometricPrecision" transform="matrix(1,0,0,1,-332,-218)" stroke="rgb(153,51,0)">
      <rect x="389.608" y="452.0272" clip-path="url(#clipPath2)" width="292.6556" rx="4" ry="4" height="20" stroke="none"/>
    </g>
    <g stroke-linecap="butt" transform="matrix(1,0,0,1,-332,-218)" fill="white" text-rendering="geometricPrecision" font-family="sans-serif" shape-rendering="geometricPrecision" stroke="white" stroke-miterlimit="1.45">
      <text x="395.608" xml:space="preserve" y="466.4481" clip-path="url(#clipPath2)" stroke="none">some assertion</text>
    </g>
    <g stroke-linecap="butt" transform="matrix(-0,-1,1,-0,27.1698,87.5337)" fill="rgb(153,153,153)" text-rendering="geometricPrecision" font-family="sans-serif" shape-rendering="geometricPrecision" stroke="rgb(153,153,153)" stroke-miterlimit="1.45">
      <text x="2" xml:space="preserve" y="13.4023" clip-path="url(#clipPath3)" stroke="none">Given Stage</text>
    </g>
    <g stroke-linecap="butt" transform="matrix(-0,-1,1,-0,27.1698,168.1807)" fill="rgb(153,153,153)" text-rendering="geometricPrecision" font-family="sans-serif" shape-rendering="geometricPrecision" stroke="rgb(153,153,153)" stroke-miterlimit="1.45">
      <text x="2" xml:space="preserve" y="13.4023" clip-path="url(#clipPath4)" stroke="none">When Stage</text>
    </g>
    <g stroke-linecap="butt" transform="matrix(-0,-1,1,-0,27.1698,258.0726)" fill="rgb(153,153,153)" text-rendering="geometricPrecision" font-family="sans-serif" shape-rendering="geometricPrecision" stroke="rgb(153,153,153)" stroke-miterlimit="1.45">
      <text x="2" xml:space="preserve" y="13.4023" clip-path="url(#clipPath5)" stroke="none">Then Stage</text>
    </g>
    <g stroke-linecap="butt" transform="matrix(1,0,0,1,-332,-218)" fill="white" text-rendering="geometricPrecision" shape-rendering="geometricPrecision" stroke="white" stroke-width="2" stroke-miterlimit="1.45">
      <path fill="none" d="M476.937 258.208 L497.968 258.208" clip-path="url(#clipPath2)"/>
      <path d="M506.968 258.208 L493.468 252.583 L496.843 258.208 L493.468 263.833 Z" clip-path="url(#clipPath2)" stroke="none"/>
      <path fill="none" d="M476.9617 281.9195 L624.4667 280.3002" clip-path="url(#clipPath2)"/>
      <path d="M633.4661 280.2014 L619.9052 274.725 L623.3417 280.3126 L620.0287 285.9743 Z" clip-path="url(#clipPath2)" stroke="none"/>
      <path fill="none" stroke-width="4" d="M527.344 268.208 L527.344 311.392" clip-path="url(#clipPath2)" stroke="silver"/>
      <path fill="silver" stroke-width="4" d="M527.344 322.392 L534.219 305.892 L527.344 310.017 L520.469 305.892 Z" clip-path="url(#clipPath2)" stroke="none"/>
      <path fill="none" d="M506.968 332.392 L433.288 332.392 L433.288 336.704 L433.288 343.3827" clip-path="url(#clipPath2)"/>
      <path d="M433.288 352.3827 L438.913 338.8827 L433.288 342.2577 L427.663 338.8827 Z" clip-path="url(#clipPath2)" stroke="none"/>
      <path fill="none" d="M476.9877 362.392 L559.976 362.392" clip-path="url(#clipPath2)"/>
      <path d="M568.976 362.392 L555.476 356.767 L558.851 362.392 L555.476 368.017 Z" clip-path="url(#clipPath2)" stroke="none"/>
      <path fill="none" stroke-width="4" d="M527.344 342.392 L527.344 401.296" clip-path="url(#clipPath2)" stroke="silver"/>
      <path fill="silver" stroke-width="4" d="M527.344 412.296 L534.219 395.796 L527.344 399.921 L520.469 395.796 Z" clip-path="url(#clipPath2)" stroke="none"/>
      <path fill="none" stroke-width="4" d="M589.376 372.4185 L589.376 401.3108" clip-path="url(#clipPath2)" stroke="silver"/>
      <path fill="silver" stroke-width="4" d="M589.376 412.3108 L596.251 395.8108 L589.376 399.9358 L582.501 395.8108 Z" clip-path="url(#clipPath2)" stroke="none"/>
      <path fill="none" stroke-width="4" d="M655.504 289.9295 L655.504 401.3103" clip-path="url(#clipPath2)" stroke="silver"/>
      <path fill="silver" stroke-width="4" d="M655.504 412.3103 L662.379 395.8103 L655.504 399.9353 L648.629 395.8103 Z" clip-path="url(#clipPath2)" stroke="none"/>
      <path fill="none" d="M527.344 432.296 L527.344 442.9968" clip-path="url(#clipPath2)"/>
      <path d="M527.344 451.9968 L532.969 438.4968 L527.344 441.8718 L521.719 438.4968 Z" clip-path="url(#clipPath2)" stroke="none"/>
      <path fill="none" d="M589.376 432.3026 L589.376 442.9968" clip-path="url(#clipPath2)"/>
      <path d="M589.376 451.9968 L595.001 438.4968 L589.376 441.8718 L583.751 438.4968 Z" clip-path="url(#clipPath2)" stroke="none"/>
      <path fill="none" d="M655.504 432.3112 L655.504 443.0224" clip-path="url(#clipPath2)"/>
      <path d="M655.504 452.0224 L661.129 438.5224 L655.504 441.8974 L649.879 438.5224 Z" clip-path="url(#clipPath2)" stroke="none"/>
    </g>
  </g>
</svg>
